<?xml version="1.0" encoding="UTF-8"?>
<svg xmlns="http://www.w3.org/2000/svg" version="1.1" viewBox="0 0 260 260">
  <defs>
    <style>
      .cls-1 {
        fill: #f6adcd;
      }
    </style>
  </defs>
  <!-- Generator: Adobe Illustrator 28.7.1, SVG Export Plug-In . SVG Version: 1.2.0 Build 142)  -->
  <g>
    <g id="Layer_1">
      <path class="cls-1" d="M126.9,213c23-11,45.4-24.9,64.7-41.6,11.7-10.2,24.1-23.6,26.7-39.5,3.5-20.7-5.7-43.9-24.2-54.6s-55.2.2-73.8,19.8c8.4,2.2,16.7,4.4,25.1,6.6-4.5-11.3-10.8-22-19.2-30.9s-14.7-12.4-23.8-14.6-23.3.2-33.6,5.6c-21.7,11.5-30.1,35.3-25.9,58.5,4.7,25.8,24.9,46.4,41.9,65s17.1,18.2,27.1,25.7,16.8,1,20.5-5.4,1.1-15.6-5.4-20.5c.2.2,4.1,3.3,1.9,1.4s-2-1.7-3-2.6c-4-3.5-7.8-7.2-11.5-11-6.4-6.6-12.6-13.4-18.6-20.3s-14.7-16.8-19.9-27.2-2.9-6.7-3.9-11.8-.3-1.8-.5-2.7c.5,3.1,0,.2,0-.6,0-2.3,0-4.6.1-6.9-.3,3.8.5-2,.8-3s.5-1.5.7-2.2c-.9,3.1-.4.8,0-.1.8-1.5,1.7-3,2.6-4.4-1.9,3,0,0,.5-.5.8-.9,1.7-1.6,2.5-2.4,1.8-1.9.2-.3-.3.1,1-.7,2-1.4,3-2s1.4-.8,2.2-1.2c0,0,3.7-1.7,1.7-.9s2-.7,1.9-.6c.9-.3,1.7-.6,2.6-.8s4.4-.5.3-.3c1,0,2.1-.1,3.1-.1-.2,0,2,.1,2,.1-.2.9-3.6-1.1-.1.2s1.3.5,1.9.6c2.9.6-1.8-1.3-.5-.2s2.6,1.5,3.8,2.2,3,2.7.1,0c.7.7,1.5,1.3,2.2,1.9,1.3,1.2,2.6,2.5,3.7,3.9s1,1.2,1.6,1.9c2.2,2.5-1.8-2.8,0,0s3.6,5.2,5.2,8,2.3,4.2,3.3,6.4.6,1.5,1,2.2c.9,1.4-1.8-4.4-1.1-2.6,4,10,16.6,15.5,25.1,6.6s7.8-7.8,11.7-10.4,4.3-2.7,6.5-3.8c-.2,0,4-1.8,2-1s2.7-.8,3.2-1c.8-.2,1.6-.4,2.4-.6s4.5-.3.7-.2c1.9,0,3.7,0,5.6,0s2,.8-.8-.1c1,.3,2.1.4,3.1.7s1.3.5,2,.7c-3.6-1-.8-.4.2.2s4.8,3.5,2,1c1.3,1.2,2.5,2.4,3.7,3.6,2.5,2.4-1.6-2.7.2.2s.8,1.2,1.2,1.8c.6.9,1,1.9,1.6,2.8,1.5,2.6-.8-2.7.2.4s1.2,3.5,1.6,5.4.3,1.5.4,2.2c-.8-3.9,0-.2,0,.7.1,1.8-.2,3.8,0,5.6s-1.6-.9.3-1.7c-.2,0-.5,2.3-.6,2.6-.2.6-.6,3.1-1.2,3.4.9-.5,1.6-3.1.1-.5s-.5,1-.8,1.5c-.7,1.3-1.5,2.6-2.4,3.8s-1.1,1.5-1.6,2.3c1.2-1.7,1.3-1.6,0,0-4.7,5.4-9.8,10.4-15.3,14.9s-2.6,2.1-3.9,3.1c3.1-2.4-1.4,1-2.3,1.7-3.3,2.4-6.6,4.7-9.9,6.9-5.8,3.9-11.8,7.5-17.8,11s-14.4,8.1-21.8,11.7-9.2,13.9-5.4,20.5,13.2,8.9,20.5,5.4Z"/>
    </g>
  </g>
</svg>