<?xml version="1.0" encoding="UTF-8"?>
<svg xmlns="http://www.w3.org/2000/svg" version="1.1" viewBox="0 0 260 260">
  <defs>
    <style>
      .cls-1 {
        fill: #6950a1;
      }
    </style>
  </defs>
  <!-- Generator: Adobe Illustrator 28.7.1, SVG Export Plug-In . SVG Version: 1.2.0 Build 142)  -->
  <g>
    <g id="Layer_1">
      <path class="cls-1" d="M151.8,130.5c0-2.1.1-4.2.3-6.3s.4-2.9,0-.6c.1-.8.3-1.5.4-2.3.8-4,1.9-7.9,3.4-11.6s-.8,1.7.3-.5.9-1.8,1.3-2.7c.8-1.5,1.7-3,2.6-4.5s2.1-3.3,3.3-4.9c-1.3,1.8,1.9-2.1,2.4-2.6,2-2.2,6.1-5.8,7.2-6.7s4.7-3.8,6.2-6.3,2.9-6.5,2.9-10c0-12.7-10-18.8-21-21.7-34-8.7-69.1,5-89.4,33.1s-19.8,61.6-4.1,89.1c15.8,27.8,47.8,44.9,79.7,41.8s26.3-3,32.3-13.4c3.5-6.1,3.6-13.9.2-20s-4.4-5.1-7.4-7.4,0,0,.2.1c-.9-.8-1.8-1.6-2.7-2.4-1.6-1.5-3.1-3-4.6-4.6s-1.3-1.5-1.9-2.2c-1.7-1.9.1.3-.8-1-2.4-3.4-4.4-6.9-6.3-10.7s-.5-1.1-.2-.5c-.5-1.1-.9-2.3-1.3-3.5-.7-2.1-1.3-4.3-1.8-6.5s-1-5.9-.7-3.5c-.3-2.6-.4-5.1-.4-7.7,0-7.8-6.8-15.4-15-15s-15.1,6.6-15,15c.2,14.9,4,29.7,11.6,42.5,3.6,6,8,11.8,13,16.7s5.8,6.1,9,7.6,3,3.5-.8-1.9l-1.9-2.8c.9-3.3,1.8-6.6,2.7-9.8.8-1,5.6-2.4,1.5-1.5s-2.2.7-3.3,1c-3.2.8-6,1.4-8.1,1.5-3.7.2-7.3.3-10.9,0s-4.1-.6-1.5-.1c-1.6-.3-3.1-.6-4.6-.9-3.1-.7-6-1.7-8.9-2.7s.3.2.5.3c-.6-.3-1.2-.5-1.8-.8-1.2-.6-2.4-1.2-3.5-1.8-2.7-1.5-5.2-3.1-7.7-4.9s.3.2.5.3c-.5-.4-1-.8-1.5-1.3-1.1-1-2.3-2-3.4-3.1s-1.8-1.9-2.7-2.8-.9-1-1.3-1.5-1.9-2.3-.9-1-1.5-2.1-1.9-2.7c-.7-1.1-1.4-2.2-2.1-3.3s-1.3-2.3-1.9-3.5-2.2-5.1-1.2-2.4c-.9-2.5-1.8-5-2.5-7.6s-.7-3.1-1-4.6-.2-1.3-.3-2c.3,1.5.1,1.3,0,0-.2-3-.4-6-.3-9.1s.2-2.8.3-4.2,0,.3-.1.6c.2-1.1.4-2.3.6-3.4.5-2.7,1.2-5.3,2.1-7.8s1-3,1.6-4.4c-1.1,2.5.6-1.1,1-1.9,1.3-2.6,2.8-5,4.4-7.4s2.4-3.2.8-1.2c1-1.2,2-2.4,3-3.5,1.9-2.1,4.1-4,6.2-5.9s-1.2.7,1.1-.9,2.9-2,4.4-2.9c2.3-1.4,4.6-2.6,7-3.8s.7-.3,0,0c.6-.2,1.2-.5,1.9-.7,1.5-.5,3-1,4.5-1.5s3.1-.8,4.6-1.1,4.2-.8,2.7-.5,2.2-.2,2.8-.2c2.1-.1,4.2-.2,6.3-.1,4.4.1,6.6.4,10.5,1.4s2.3.6,3.5.9c2.1.6,4.3,2.3.2-1.3l-2.4-2.1-1-7.5,3.8-5.4-3,2.3c-6.5,5.1-11.9,11.1-16.7,17.8-9.8,13.7-14.6,30.7-14.8,47.4,0,7.8,7,15.4,15,15s14.9-6.6,15-15Z"/>
    </g>
  </g>
</svg>