<?xml version="1.0" encoding="UTF-8"?>
<svg xmlns="http://www.w3.org/2000/svg" version="1.1" viewBox="0 0 260 260">
  <defs>
    <style>
      .cls-1 {
        fill: #feae37;
      }

      .cls-2 {
        fill: #ffda2d;
      }

      .cls-3 {
        fill: #6950a1;
      }

      .cls-4 {
        fill: #fa005d;
      }

      .cls-5 {
        fill: #79a8e3;
      }

      .cls-6 {
        fill: #47b972;
      }
    </style>
  </defs>
  <!-- Generator: Adobe Illustrator 28.7.1, SVG Export Plug-In . SVG Version: 1.2.0 Build 142)  -->
  <g>
    <g id="Layer_1">
      <path class="cls-3" d="M47.8,164.5c.6-2.6,1.5-5.2,2.4-7.8s2-5.5,3.1-8.2-1.1,2.5-.2.4.8-1.7,1.1-2.6c.8-1.8,1.7-3.7,2.6-5.5,2-4,4.2-7.9,6.5-11.7s2.4-3.8,3.7-5.7,1.4-2,2.1-3,.8-1,1.1-1.5c1-1.5-2.1,2.5,0,.1,3.3-3.9,6.6-7.7,10.2-11.2s3.7-3.4,5.7-5,1.1-.9,1.6-1.3c-2.3,1.8-.8.6-.3.2,1.3-.9,2.6-1.8,3.9-2.7,2.2-1.5,4.5-2.8,6.9-4.1s2.6-1.3,3.9-2,1.3-.6,2-.9c-1.1.5-1.5.6-.1,0,5.9-2.2,11.8-3.8,18-5s2.6-.4,0,0c.8-.1,1.7-.2,2.5-.3,1.5-.1,3-.3,4.5-.3,3.6-.2,7.3-.2,10.9,0s4.3.4,3.1.3.8.1,1.2.2c.8.1,1.5.3,2.3.4,3,.6,6,1.4,8.9,2.3s2.8,1,4.2,1.5c2.9,1.1-.8-.5,1.3.5s5.4,2.7,8,4.2,4.3,2.8,6.5,4.3,2,1.6-.3-.3c.5.4,1.1.8,1.6,1.3,1,.9,2,1.7,3,2.6,3.9,3.5,7.4,7.3,10.8,11.3s2.9,3.9.8.9c.6.9,1.3,1.7,1.9,2.6,1.5,2.1,2.9,4.1,4.2,6.3,2.5,4,4.9,8.1,7,12.4s1.8,3.6,2.6,5.4.7,2.5,1.3,2.9c-1-.7-1.3-3.2-.2-.5s2.6,6.7,3.6,10.2c2,7,9.6,11.4,16.6,9.4s11.4-9.6,9.4-16.6c-9.1-32.7-32.6-66.3-64.1-80.3-27.6-12.3-59.4-11.1-86.4,2.3-21.1,10.5-37.8,28.9-49.5,49.2-6.7,11.7-12.6,24.6-15.8,37.7-1.7,7.1,2.3,14.6,9.4,16.6s14.9-2.3,16.6-9.4h0Z"/>
      <path class="cls-5" d="M56.6,172.8c.6-2.4,1.4-4.7,2.3-7s.9-2.3,1.3-3.5.5-1.3.8-1.9c.6-1.7-1.5,3.3,0,.2s2.9-6.3,4.5-9.4,3.9-7,6-10.4,2.4-3.6,3.6-5.3,2.3-3.1,1.2-1.7,1.2-1.5,1.7-2c3-3.6,6.2-7,9.7-10.2s1.8-1.6,2.7-2.4,3.1-2.5,1.9-1.6,1.5-1,2-1.4c1.2-.8,2.4-1.6,3.6-2.3,2.2-1.3,4.4-2.6,6.7-3.7s2-1,3-1.4c-2.7,1.2,1.2-.5,2-.8,2.6-.9,5.2-1.7,7.8-2.4s2.7-.6,4.1-.9,1.2-.2,1.8-.3c2.6-.5-.9,0,.7-.1,5.9-.6,11.7-.6,17.6-.2s-2.1-.4,0,0,1.1.2,1.7.3c1.3.2,2.6.5,3.9.8,2.7.7,5.3,1.6,7.9,2.4s-1.6-.8.7.3,2.2,1,3.3,1.6c2.3,1.2,4.5,2.5,6.7,3.9s1.9,1.4,2.9,2-.7-.5-.7-.6c.5.4,1,.8,1.6,1.3,1.9,1.6,3.7,3.2,5.5,5s2.9,3,4.3,4.6,1.5,1.7,2.2,2.5.6.7.9,1.1c2,2.4-1.1-1.6-.1-.1,2.4,3.6,5,7.1,7.2,10.8s4,7.3,5.8,11,.8,1.8,1.2,2.6c1.3,2.8,0,0,0-.1.5,1.5,1.2,3,1.8,4.5,1.1,3,2.2,6.1,3,9.2,1.8,7.1,9.7,11.3,16.6,9.4s11.2-9.5,9.4-16.6c-7.6-29.7-27.9-61-55.9-74.6s-53.2-11.1-77.9.2c-20.1,9.2-36,26.2-47.3,44.9-6.5,10.8-12.2,22.8-15.5,35s2.4,14.7,9.4,16.6,14.7-2.4,16.6-9.4h0Z"/>
      <path class="cls-6" d="M61.2,185c3.6-8.1,8.2-15.9,13-23.3s4.3-6.5,6.6-9.7,1.2-1.7,1.9-2.5c-2,2.7.1-.2.5-.6,1.6-2,3.2-3.9,4.8-5.7,2.7-3,5.5-5.9,8.4-8.6s3.3-3,5-4.3,3.3-2.5.7-.6c1.2-.9,2.3-1.7,3.6-2.5,1.8-1.2,3.6-2.3,5.5-3.4s1.9-1,2.9-1.5,3.8-1.7.7-.4c2-.8,4-1.5,6-2.1s2.1-.6,3.1-.8,5.3-.7,1.7-.4c2.2-.2,4.4-.3,6.6-.3s2.2.1,3.4.2c3.6.2-2.7-.7.8.1s4.3.9,6.4,1.5,2,.7,3.1,1c1.4.6,1.4.5-.2-.1.7.3,1.3.6,2,.9,3.9,1.9,7.7,4.1,11.2,6.7s3.3,2.5.8.5c.9.7,1.7,1.4,2.5,2.1,1.7,1.4,3.3,2.9,4.9,4.4,3.1,3,6.1,6.2,8.8,9.5s1.4,1.6,2,2.5,2.5,3.3.5.6c1.4,1.9,2.8,3.8,4.2,5.7,6.2,8.9,11.9,18.4,16.3,28.4s12.7,8.2,18.5,4.8,7.8-11.8,4.8-18.5-8.9-17.5-14.4-25.6c-11.2-16.8-25.2-33-43.1-42.8s-43.3-11.6-64.1-1.4c-18.4,9-32.7,25.1-44.4,41.5s-13.3,20.1-18.1,31-1.9,14.5,4.8,18.5,15.5,1.8,18.5-4.8h0Z"/>
      <path class="cls-2" d="M73.8,191c.7-2.1,1.5-4.3,2.3-6.3s.4-1,.6-1.5c.9-2.3-1.5,3.3-.4,1s.9-2.1,1.4-3.1c1.4-3.1,3-6.2,4.7-9.2s3.3-5.8,5.2-8.5,2.2-3.2,3.3-4.8,2.5-3.1.3-.4c.6-.8,1.3-1.6,1.9-2.3,2.6-3.1,5.5-6.1,8.5-8.8s4.7-3.9,2.1-1.9c2-1.5,4-2.9,6.1-4.1s3.7-2,5.7-3c3.1-1.5-1.8.6.3-.1s1.7-.6,2.6-.9c2.1-.7,4.3-1.3,6.4-1.7s4.2-.6.9-.2c1.6-.2,3.1-.3,4.7-.3s3.8,0,5.7.1c3.6,0-2.7-.6.8,0s2.1.4,3.2.6c2.1.5,4,1.2,6.1,1.9,3.2,1.1-1.7-.9.2,0s2.2,1,3.3,1.6c1.8,1,3.6,2.1,5.3,3.2s1.7,1.2,2.5,1.8c-2.7-2,0,0,.5.5,3.2,2.6,6.1,5.6,8.8,8.6s2.6,3.1,3.9,4.7c-2.2-2.7,1,1.4,1.5,2.1,2.4,3.4,4.6,6.9,6.7,10.5s3.6,6.5,5.2,9.8,1.3,2.7,1.9,4.1.5,1.3.8,1.9c1,2.2-1.4-3.5-.1-.3s2.1,5.3,3,8c2.2,6.9,9.4,11.4,16.6,9.4s11.6-9.6,9.4-16.6c-8.3-26.3-24.8-53.5-48.3-68.5s-42.7-13.2-63.3-4.3-31.1,22.3-41,38.2-11.5,20.7-14.9,31.8,2.6,14.7,9.4,16.6,14.4-2.4,16.6-9.4h0Z"/>
      <path class="cls-1" d="M85.8,194.5c.2-.5.4-1,.6-1.5.9-2.4-.8,1.8-.5,1.3.4-.9.8-1.8,1.2-2.6,2.1-4.6,4.5-9.2,7.2-13.5s3.2-5.1,5-7.6,1-1.4,1.5-2c-1.7,2.4-.6.8-.2.3,1.3-1.6,2.7-3.2,4.1-4.7,2.1-2.3,4.4-4.6,6.8-6.6s3.3-2.4.6-.5c.6-.4,1.1-.8,1.7-1.2,1.8-1.2,3.6-2.3,5.5-3.3s1.3-.6,1.9-.9c3.1-1.5-1.8.6.2,0s3.1-1,4.6-1.4,1.8-.4,2.7-.6c2.1-.4-3.3,0,.3,0s4,0,6,0,3.1.7,0,0c.7.1,1.3.2,2,.4,1.6.4,3.2,1,4.8,1.4,2.9.9-1.5-1.1,0,0s1.5.8,2.2,1.1c1.5.8,2.9,1.7,4.3,2.6s3.1,2.5.5.3c.5.4,1,.9,1.6,1.3,1.3,1.1,2.5,2.3,3.7,3.5s2.4,2.5,3.5,3.8,3.7,4.6,1.8,2.1c4,5.3,7.5,11,10.6,16.8s2.9,5.7,4.2,8.6,2.9,5.9.7,1.6c.5.9.8,2,1.2,3,.9,2.3,1.8,4.6,2.5,6.9,2.2,7,9.4,11.4,16.6,9.4s11.6-9.6,9.4-16.6c-7.2-22.6-20-46.5-39-61.2s-33.2-15.5-50.8-9.2-30.1,19-40.2,33.8c-6,8.8-11,18.4-14.7,28.4s2.8,14.8,9.4,16.6,14.1-2.6,16.6-9.4h0Z"/>
      <path class="cls-4" d="M97,197.6c.1-.4.3-.7.4-1.1s-1.7,3.8-.7,1.7.6-1.4,1-2.2c1.6-3.5,3.4-6.9,5.3-10.2s2.5-4.1,3.8-6.1,1.4-2,2-2.9,1.6-2.1.5-.7.7-.8.9-1.1c1.6-1.9,3.3-3.7,5.1-5.5s2.1-1.9,3.2-2.8,2-1.4-.2.2c.6-.4,1.1-.8,1.7-1.2,1.2-.8,2.4-1.5,3.6-2.1s1.2-.6,1.9-.9c-.1,0-2.3.8-.8.4s2.3-.6,3.5-1c2.2-.7,0,0-.5,0,.9,0,1.8-.2,2.6-.2s2.4,0,3.7.2c-3.5-.3.6.3,1.4.5s3.9,1.5,2.3.7,2.3,1.3,3,1.7c1.1.6,2.1,1.3,3.1,2s-.5-.4-.6-.5c.6.4,1.1.9,1.7,1.4,2.2,1.9,4.3,3.9,6.2,6.1s1.7,1.9,2.5,2.9.9,1.1,1.4,1.7c1.3,1.5-1.3-1.8-.2-.2s3,4.1,4.4,6.3c3.7,5.6,7.1,11.5,9.8,17.7s12.7,8.2,18.5,4.8,7.8-11.8,4.8-18.5c-7.8-17.8-20.6-35.9-37.2-46.4-13.3-8.4-29-9.4-43.3-2.9-12.4,5.7-21.9,16.8-29.2,28s-8.7,15.1-11.8,23.2,2.9,14.8,9.4,16.6,14-2.6,16.6-9.4h0Z"/>
    </g>
  </g>
</svg>