<?xml version="1.0" encoding="UTF-8"?>
<svg xmlns="http://www.w3.org/2000/svg" version="1.1" viewBox="0 0 260 260">
  <defs>
    <style>
      .cls-1 {
        fill: #47b972;
      }
    </style>
  </defs>
  <!-- Generator: Adobe Illustrator 28.7.1, SVG Export Plug-In . SVG Version: 1.2.0 Build 142)  -->
  <g>
    <g id="Layer_1">
      <path class="cls-1" d="M136.5,145c15.8-7.6,31.3-17.2,44.4-28.9s17.2-18.7,18.5-31.4-6.2-30.6-19.2-37.9c-19.2-10.7-40.5-.4-54.3,14,8.4,2.2,16.7,4.4,25.1,6.6-3.3-8.2-7.7-16-13.9-22.4-11.8-12.4-28-14.8-43.2-7.2-15.4,7.7-23,24.4-20.8,41.1,2.6,19.2,15.9,33.8,28.5,47.5,6.1,6.7,12.5,13.2,19.7,18.7s16.8,1,20.5-5.4,1.1-15.6-5.4-20.5c4.2,3.2,2.7,2.1.4.2s-4.9-4.6-7.3-7c-8.6-8.7-18-18-23.7-28.5s-.8-1.4-1.1-2.2c0,0-1-2.3-.5-1s-.7-2.3-.9-3.1-.9-4.3-.7-2.7,0-2.4,0-3.1.6-2.6-.1.4c.1-.6.2-1.2.4-1.7s1.4-3.7.6-2,.9-1.2,1.2-1.7c.6-1.4-.4.6-.6.8.6-.5,1.1-1.1,1.6-1.7,1.7-1.9-1.5.6.7-.6s2.1-1.3,3.3-1.8c-2.4,1.1.4,0,1.4-.3s2.3-.5.1-.1,0,0,.6,0c1,.2-3.1-.6,0,0s.9.4,1.4.4c-.3,0-2.4-1.5-1.4-.6s1.8,1.2,2.5,1.5c1.3.5-.9-.7-1.1-.9.4.5,1,.8,1.5,1.3.8.8,1.6,1.6,2.4,2.5,2.4,2.5-1.3-2.1.6.7s2.2,3.3,3.2,5,1.4,2.6,2,4c1.5,3-.8-1.9-.6-1.5,4,10,16.5,15.5,25.1,6.6s4.7-4.7,7-6.3,2.6-1.5,3.9-2.3-.1,0-.4,0c.8-.3,1.6-.6,2.5-.8s1.3-.2,1.8-.4c1.8-.8-2.4-.2-.5,0s4.1-.2,1.9-.2.9.3,1.6.4,1,.3,1.5.5c-1.6-.6-2.1-1.1-.4,0s.8.6,1.3.8c-.3-.2-1.8-1.9-1.1-.7s2.6,2.9,1.2,1.2.8,1.6,1.1,2c1.2,1.9-.5-2.2.3,1s.5,2.2.8,3.3c.5,1.6-.2-.9-.2-1.1,0,.6,0,1.2,0,1.8,0,4.8-.2.2.3,0,0,0-.7,2.4-.7,2.6,0,.6,1.6-2.9.2-.6s-1,1.8-1.5,2.6-1.1,1.5-1.6,2.3c1.5-2.4.8-1-.4.3-3.2,3.6-6.7,6.6-10.4,9.7s1.9-1.3-.4.4-1.8,1.3-2.7,2c-2.1,1.5-4.2,2.9-6.3,4.3-3.6,2.4-7.3,4.6-11.1,6.8s-9,5.1-13.7,7.3c-7.3,3.5-9.2,13.9-5.4,20.5s13.2,8.9,20.5,5.4Z"/>
      <path class="cls-1" d="M140.5,127.9c-12.5-13.6-27.2-26.7-43.3-35.7s-24.9-10.7-37.8-5.9-25.4,17.4-26.8,33.2c-1.6,19.2,13.6,34.4,29.4,42.4-1-7.9-2-15.7-3-23.6-7.8,6.3-14.1,14.9-17.7,24.2-6.4,16.3,1.4,32.6,15,42.3s29.6,8.1,42.8.7c15.4-8.6,24.7-24.7,33.3-39.4,4.5-7.6,8.9-15.5,11.9-23.7,2.7-7.4-3-16.8-10.5-18.5s-15.6,2.6-18.5,10.5,1.9-4.1.2-.5-2.9,6.1-4.5,9c-2.7,4.9-5.5,9.7-8.4,14.5s-7.3,11.9-11,15.9-2,2.1-3.1,3.1-1.1.9-1.6,1.4c.2-.2,1.7-1.2.3-.3s-2.1,1.4-3.3,2-1.1.6-1.6.9c-1.6.9-.8.1.3-.1-1.1.2-2.8.5-3.8,1.1s.9-.1,1.3-.1c-.5,0-1.1.1-1.6.1s-1.1,0-1.6,0c-.9,0-1.6.5,0,0s1,.2,0,0-1.3-.4-2-.5c-2.5-.5,1.9,1.3-.3,0s-1.8-1.2-2.7-1.7c2.1,1.2.9.7-.3-.5s-.8-.9-1.2-1.2c-1.4-1,1,1.8.1.3s-2.2-3.5-1.4-1.9-.7-3.2-.3-.6-.5-3.4,0-.4-.2.7,0-.2.4-1.4.6-2.1c.5-2.3-1.2,1.9.5-1s1.5-2.5,2.3-3.7c1.8-2.9-1.1,1,.5-.7s1.4-1.7,2.2-2.5c1.7-1.8,3.5-3.6,5.4-5.1,7.3-5.9,5-19.5-3-23.6s-6.4-3.4-9.3-5.6c1.9,1.4-.5-.6-1.1-1.1-.9-.9-3.4-4.1-1.6-1.4-.7-1.1-1.4-2.1-2-3.2-1.7-2.7,0,1.5-.3-.6s-.9-2.6-.7-2.8,0,4.1.2,1.3,0-1.3,0-1.8c-.3-2.3-1,3,0,0s.3-.9.4-1.3c.4-2.3.2,1.8-.5,1.1s1.2-2.1,1.3-2.3c1.1-2.5-.8,1.1-.8.9s1-1.2,1.2-1.4c.5-.5,3-2.8,1.2-1.3s1.1-.7,1.6-1c.9-.5,1.8-.9,2.6-1.4-3.3,1.9,0,.2,1.2-.2s1.3-.2,1.5-.3c-.4.4-3.1-.1-2.1.3s2.8-.1,2.8,0-4-.9-.7,0,2.3.6,3.4,1,3.9,1.5,1.8.6,1.4.7,1.8.9c2.2,1.1,4.3,2.3,6.4,3.6s4.3,2.8,6.3,4.2,1.8,1.3,2.7,2c2.2,1.6,0,0-.4-.3.6.5,1.1.9,1.7,1.4,3.7,3,7.4,6.2,10.9,9.4s8.4,8,12.4,12.2,15.7,5.6,21.2,0,5.5-15.2,0-21.2Z"/>
      <path class="cls-1" d="M114.9,137.5c0,18.1,1.9,37.2,7.4,54.5,3.7,11.7,9.8,24.4,21.4,30.1,14.4,7.1,31.6,6.6,44.1-4s14.6-34.8,8.1-51.8c-4.8,6.3-9.6,12.7-14.5,19,8,.5,16.7-.6,24.2-3.4,15.6-5.7,25.4-18.9,24.4-35.9s-11.4-30.1-27.1-35.9c-17.4-6.4-36.2-.9-53.1,4.2s-19,5.8-27.6,10.3-9.3,13.8-5.4,20.5c4.3,7.3,13.3,9.1,20.5,5.4s2.1-.9,3.1-1.4c-4.4,2.2-.9.4,1-.3s4.6-1.7,6.9-2.5c6.2-2.1,12.5-4,18.9-5.7s7.5-2.1,11.3-2.8,1.5-.3,2.3-.4c-.3,0-2,.2-.3,0s3.7-.2,5.6-.2,5.2.6,1.8,0c1.2.2,2.4.4,3.6.8s4.4,1.6,2.5.7,1.5.9,2.1,1.2c2.2,1.1-1.6-1.8.7.5s2.7,2.7,1.2,1.1.7,1.3,1.1,1.8,1.1,2,.1,0,.2.7.3,1c.3,1,.4,2,.7,3-.7-2.8-.2-1.1-.2.9s-.4,4,0,2-1.7,3.8-.4,1.3-1.9,2.6,0,0-1.1.8-1.4,1.2c1.1-1.6,2-1.3,0-.2s-1.1.6-1.6.9c-1.9,1.2.9-.2,1-.4-.7,1.1-5.4,1.6-6.7,1.9s-.9.1-1.3.2c-2.9.7,2.7-.2,1-.1s-1.8.2-2.7.2c-2.2.2-4.4.2-6.6,0-9.1-.6-17.8,10.1-14.5,19,1.3,3.5,2.4,6.9,3.1,10.6s.3,2.5.1.7,0,.8,0,1.3,0,1.2,0,1.9,0,3.9,0,1.5-.4,1.7-.6,2.3c-.6,2-1.2,1.9,0,.2-.5.7-1.3,2-1.7,2.9-.7,1.6,2.1-1.7.6-.9s-1.1,1-1.3,1.3c-.9,1.4,2.5-1.3.9-.7s-.8.5-1.1.7-1.5.9-1.6.8c-.2-.2,3.2-.9,1.5-.7s-2.1.6-3,.9-2.1.6.2,0,0,0-.8,0-4.4-.4-1.8,0-1.3-.4-1.9-.5c-1-.3-1.9-.7-2.9-1,3.7,1.3.4-.2-.5-.5-1.6-.6,2.2,2.4.4.3s-2-1.8-1.9-2,2.2,3.4.9,1.1-.5-.7-.7-1.1c-.6-1-1.2-2-1.7-3.1s-.9-1.9-1.4-2.9c1.2,2.6.5,1.2,0-.5-.9-2.4-1.6-4.8-2.2-7.3-1.3-4.7-2.2-9.6-3-14.4s-.7-4.6-.3-2.1-.2-1.4-.2-2c-.3-2.3-.5-4.7-.7-7-.5-5.5-.8-11-.8-16.6,0-7.8-6.9-15.4-15-15s-15,6.6-15,15Z"/>
    </g>
  </g>
</svg>