<?xml version="1.0" encoding="UTF-8"?>
<svg xmlns="http://www.w3.org/2000/svg" version="1.1" viewBox="0 0 260 260">
  <defs>
    <style>
      .cls-1 {
        fill: #feae37;
      }

      .cls-2 {
        fill: #ffda2d;
      }
    </style>
  </defs>
  <!-- Generator: Adobe Illustrator 28.7.1, SVG Export Plug-In . SVG Version: 1.2.0 Build 142)  -->
  <g>
    <g id="Layer_1">
      <g>
        <polygon class="cls-1" points="239.5 166.7 89.6 138.6 89.6 113.2 239.5 94.4 239.5 166.7"/>
        <path class="cls-1" d="M242.7,155.2c-43.9-8.2-87.7-16.5-131.6-24.7-6.1-1.1-12.2-2.3-18.3-3.4l8.8,11.6v-25.4l-12,12c43.8-5.5,87.5-10.9,131.3-16.4,6.2-.8,12.4-1.6,18.6-2.3l-12-12v72.3c0,15.4,24,15.5,24,0v-72.3c0-5.9-5.5-12.8-12-12-43.8,5.5-87.5,10.9-131.3,16.4s-12.4,1.6-18.6,2.3-12,4.8-12,12v25.4c0,4.9,3.7,10.6,8.8,11.6,43.9,8.2,87.7,16.5,131.6,24.7,6.1,1.1,12.2,2.3,18.3,3.4s12.9-1.8,14.8-8.4-2-13.6-8.4-14.8Z"/>
      </g>
      <g>
        <polygon class="cls-2" points="239.5 136.1 89.6 129.2 89.6 122.9 239.5 118.2 239.5 136.1"/>
        <path class="cls-2" d="M239.5,124.1c-43.7-2-87.4-4.1-131.1-6.1-6.3-.3-12.5-.6-18.8-.9l12,12v-6.3l-12,12c43.8-1.4,87.5-2.7,131.3-4.1s12.4-.4,18.6-.6l-12-12v17.9c0,15.4,24,15.5,24,0v-17.9c0-6.3-5.5-12.2-12-12-43.8,1.4-87.5,2.7-131.3,4.1s-12.4.4-18.6.6-12,5.3-12,12v6.3c0,6.7,5.5,11.7,12,12,43.7,2,87.4,4.1,131.1,6.1,6.3.3,12.5.6,18.8.9s12-5.7,12-12-5.5-11.7-12-12Z"/>
      </g>
      <g>
        <polygon class="cls-2" points="53.4 74.5 83.7 96.7 120.9 91.4 109.1 127 125.6 160.7 88.1 160.5 61.1 186.7 49.7 150.9 16.5 133.4 47 111.5 53.4 74.5"/>
        <path class="cls-2" d="M47.4,84.8c5.2,3.8,10.4,7.6,15.5,11.4l10.7,7.9c2.8,2,4.9,3.9,8.5,4.4s6.6-.5,9.7-.9l12.7-1.8c6.5-.9,13-1.9,19.6-2.8-4.9-4.9-9.8-9.8-14.8-14.8-2,6.1-4,12.2-6.1,18.3l-4.2,12.6c-1.1,3.2-2.3,6-1.8,9.5s2.2,6.1,3.6,8.9,3.8,7.7,5.7,11.5c2.9,5.9,5.8,11.8,8.7,17.7l10.4-18.1c-6.4,0-12.9,0-19.3-.1h-13.3c-3.3,0-6.5-.4-9.6.9s-5.1,3.7-7.4,5.9-6.1,6-9.2,8.9c-4.7,4.6-9.5,9.2-14.2,13.8l20.1,5.3c-2-6.1-3.9-12.2-5.9-18.4l-4-12.7c-1-3-1.7-6.3-3.7-8.8s-4.9-3.9-7.8-5.4-7.6-4-11.3-6c-5.8-3.1-11.7-6.2-17.5-9.2v20.7c5.2-3.7,10.4-7.5,15.7-11.2,3.6-2.6,7.2-5.2,10.8-7.8s5.5-3.6,7.4-6,2.4-5.6,3-9l2.2-12.6c1.1-6.5,2.2-13,3.4-19.5,1.1-6.4-1.7-12.9-8.4-14.8s-13.7,2-14.8,8.4c-2.1,12.3-4.3,24.7-6.4,37,1.8-2.4,3.7-4.8,5.5-7.2-10.2,7.3-20.3,14.6-30.5,21.9-6.9,4.9-8.6,16.2,0,20.7s22.2,11.7,33.2,17.5c-1.8-2.4-3.7-4.8-5.5-7.2,3.8,11.9,7.6,23.9,11.4,35.8s13.4,11.8,20.1,5.3c9-8.7,18-17.5,26.9-26.2l-8.5,3.5c12.5,0,25,.1,37.6.2s14.3-10.1,10.4-18.1-11.1-22.5-16.6-33.7l1.2,9.2c3.9-11.9,7.9-23.8,11.8-35.7s-.2-8.8-3.1-11.7-7.3-3.7-11.7-3.1c-12.4,1.8-24.8,3.6-37.2,5.3l9.2,1.2c-10.1-7.4-20.2-14.8-30.3-22.3s-13.4-.9-16.4,4.3-.9,12.6,4.3,16.4Z"/>
      </g>
    </g>
  </g>
</svg>