<?xml version="1.0" standalone="no"?>
<!DOCTYPE svg PUBLIC "-//W3C//DTD SVG 20010904//EN"
 "http://www.w3.org/TR/2001/REC-SVG-20010904/DTD/svg10.dtd">
<svg version="1.0" xmlns="http://www.w3.org/2000/svg"
 width="200.000000pt" height="200.000000pt" viewBox="0 0 200.000000 200.000000"
 preserveAspectRatio="xMidYMid meet">
<metadata>
Created by potrace 1.14, written by Peter Selinger 2001-2017
</metadata>
<g transform="translate(0.000000,200.000000) scale(0.100000,-0.100000)"
fill="#000000" stroke="none">
<path d="M0 1000 l0 -1000 1000 0 1000 0 0 1000 0 1000 -1000 0 -1000 0 0
-1000z m1440 647 c0 -42 -38 -173 -65 -228 -34 -67 -117 -149 -183 -183 l-51
-26 -7 35 c-17 94 61 227 206 352 46 40 88 73 92 73 4 0 8 -11 8 -23z m-324
-49 c32 -64 42 -158 24 -224 -16 -57 -93 -164 -118 -164 -37 0 -82 71 -82 128
1 60 115 312 142 312 4 0 20 -24 34 -52z m-301 -180 c84 -42 136 -121 120
-181 -23 -89 -28 -97 -54 -98 -89 -4 -134 16 -164 74 -22 42 -34 153 -23 210
7 35 7 35 44 25 20 -6 55 -19 77 -30z m865 33 c0 -16 -75 -104 -138 -163 -81
-75 -171 -119 -257 -126 l-66 -5 16 39 c57 137 187 229 359 254 74 11 86 11
86 1z m-1082 -261 c130 -14 187 -49 199 -122 5 -36 5 -36 -51 -57 -107 -40
-198 -21 -268 57 -32 35 -78 110 -78 127 0 8 95 6 198 -5z m1047 -29 c33 -15
71 -37 84 -48 l24 -20 -112 -36 c-195 -64 -294 -69 -368 -21 -31 20 -29 31 15
71 103 96 229 115 357 54z m-198 -192 c50 -24 107 -86 147 -159 l28 -52 -93 7
c-124 9 -228 31 -259 53 -34 26 -70 80 -70 107 0 20 27 38 90 59 38 12 116 5
157 -15z m-775 1 c20 -6 47 -19 60 -30 l23 -20 -40 -36 c-51 -46 -129 -83
-193 -91 -61 -7 -167 23 -230 66 l-44 29 79 26 c104 34 230 64 273 65 19 1 52
-4 72 -9z m523 -131 c50 -14 97 -63 114 -120 12 -41 18 -205 8 -215 -9 -10
-152 62 -188 94 -20 18 -42 45 -49 62 -16 39 -9 130 13 164 19 29 41 32 102
15z m-425 -21 c0 -7 -13 -36 -30 -64 -54 -95 -155 -161 -285 -189 -79 -17
-155 -20 -155 -6 0 20 183 180 241 211 98 52 229 79 229 48z m259 -84 c31 -39
36 -88 17 -158 -19 -66 -72 -174 -110 -221 l-24 -29 -21 34 c-78 127 -63 263
39 374 46 50 60 50 99 0z m-169 -20 c0 -40 -7 -71 -26 -108 -31 -63 -126 -162
-219 -228 -80 -57 -85 -53 -60 44 36 143 114 252 226 317 75 43 79 41 79 -25z"/>
</g>
</svg>
