
<svg xmlns="http://www.w3.org/2000/svg" xmlns:xlink="http://www.w3.org/1999/xlink" width="132.893" height="31.645" viewBox="0 0 132.893 31.645"><defs><clipPath id="a"><rect width="132.893" height="31.645" fill="none"/></clipPath></defs><g clip-path="url(#a)"><path d="M.907,23.623A12.722,12.722,0,0,1,0,18.924V12.779A12.935,12.935,0,0,1,12.962,0,12.492,12.492,0,0,1,23.386,5.689c-.254,7.182-3.748,11.021-14.025,13.519C3.442,20.648.907,23.6.907,23.6Zm4.449-8.346a46.858,46.858,0,0,1,4.83-1.382c6.229-1.344,7.8-6.084,7.8-6.084a6.26,6.26,0,0,0-4.626-1.889,8.011,8.011,0,0,0-8.016,7.492Z" transform="translate(0 0)" fill="#008d40"/><path d="M27.175,57.873l-2.981-1.826a1.366,1.366,0,0,0-2.009.609,6.062,6.062,0,0,1-5.355,3.1,6.253,6.253,0,0,1-4.919-2.465,15.428,15.428,0,0,0-5.373,3.339,12.449,12.449,0,0,0,9.988,5.089A13.012,13.012,0,0,0,27.6,59.454a1.234,1.234,0,0,0-.426-1.581" transform="translate(-3.991 -34.081)" fill="#6eac33"/><path d="M89.691,31.642A12.674,12.674,0,0,1,77.156,18.924V12.779A12.894,12.894,0,0,1,90.114,0a12.42,12.42,0,0,1,9.68,4.684,1.3,1.3,0,0,1-.185,2.008L96.627,8.884A1.208,1.208,0,0,1,94.8,8.459a6.03,6.03,0,0,0-4.991-2.5,6.529,6.529,0,0,0-6.268,6.757v6.143a6.655,6.655,0,0,0,6.45,6.815,6.063,6.063,0,0,0,5.354-3.1,1.365,1.365,0,0,1,2.008-.609l2.981,1.826a1.234,1.234,0,0,1,.427,1.581,13.011,13.011,0,0,1-11.074,6.268" transform="translate(-47.102 0)" fill="#6eac33"/><path d="M161.042,31.641a12.673,12.673,0,0,1-12.531-12.718V12.778A12.934,12.934,0,0,1,161.469,0,12.673,12.673,0,0,1,174,12.719v6.143a12.893,12.893,0,0,1-12.961,12.779m6.571-18.863a6.653,6.653,0,0,0-6.45-6.817c-3.587,0-6.2,3.164-6.2,6.757v6.143a6.6,6.6,0,0,0,6.384,6.815,6.528,6.528,0,0,0,6.268-6.755Z" transform="translate(-90.663 0)" fill="#6eac33"/><path d="M243.332,32.48a12.536,12.536,0,0,1-12.4-12.58V3.316c0-1.339.487-1.947,1.764-1.947h3.044c1.213,0,1.581.851,1.581,1.888l-.009,16.586a6.532,6.532,0,0,0,6.317,6.741l.122.009c.955,0,1.739.337,1.739,1.455v2.806c0,1.178-.561,1.625-1.8,1.625Z" transform="translate(-140.98 -0.836)" fill="#6eac33"/><path d="M288.244,31.641a12.675,12.675,0,0,1-12.535-12.718V12.778A12.938,12.938,0,0,1,288.673,0a12.674,12.674,0,0,1,12.534,12.72v6.143a12.9,12.9,0,0,1-12.963,12.779m6.575-18.863a6.655,6.655,0,0,0-6.451-6.817c-3.592,0-6.207,3.164-6.207,6.757v6.143a6.6,6.6,0,0,0,6.391,6.815,6.53,6.53,0,0,0,6.267-6.755Z" transform="translate(-168.315 0)" fill="#6eac33"/></g></svg>