<svg width="67" height="37" viewBox="0 0 67 37" fill="none" xmlns="http://www.w3.org/2000/svg">
  <path fill-rule="evenodd" clip-rule="evenodd" d="M42.1256 2.19606V1.01355C39.1392 0.389448 31.8771 -0.415315 25.4828 0.249847V1.15863C30.8288 0.687813 37.5762 1.26264 42.1256 2.19606ZM43.3465 1.24065C49.7299 2.4697 54.9691 4.84293 57.5585 6.42782V8.09483C54.3915 5.86941 48.2025 3.4606 43.3465 2.45327V1.24065ZM41.4769 3.28288C45.2817 3.95351 50.0747 5.61505 53.2719 7.50651V7.50925V9.12151C50.8959 7.43261 45.7745 5.30847 41.4769 4.44622V3.28288ZM39.7441 5.12239C43.8062 5.9819 47.247 7.45457 48.9195 8.50842V10.1179C46.6038 8.57412 43.6447 7.23011 39.7441 6.28848V5.12239ZM45.0135 11.1088V9.48016C43.6202 8.57959 40.8637 7.34507 38.1155 6.77024V7.93906C40.7597 8.57959 43.5709 9.95097 45.0135 11.1088ZM36.6374 8.31376C38.1155 8.63949 40.5353 9.67693 41.143 10.197V10.1997V11.864C40.4286 11.1195 38.3263 9.90138 36.6374 9.48532V8.31376ZM36.328 36.0209V15.8799H66.5175V36.0209H36.328ZM44.4112 25.6712L43.4723 25.6657L44.236 26.2159L43.9404 27.1055L44.6959 26.5499L45.4486 27.1055L45.1585 26.2159L45.9194 25.6657L44.9806 25.6712L44.6959 24.7788L44.4112 25.6712ZM45.5937 29.9003L46.3519 30.456H46.3547L46.059 29.5663L46.82 29.0162L45.8839 29.0244L45.5964 28.1265L45.309 29.0244L44.3729 29.0189L45.1338 29.5663L44.8382 30.456L45.5937 29.9003ZM46.3602 23.7523L46.0673 22.8627L46.831 22.3125L45.8921 22.318L45.6074 21.4256L45.32 22.318L44.3811 22.3125L45.1448 22.8627L44.8519 23.7523L45.6074 23.1967L46.3602 23.7523ZM48.0655 32.3666L48.8237 32.9195L48.5308 32.0272L49.2891 31.4797L48.3529 31.4852L48.0655 30.5928L47.7808 31.4852L46.8447 31.4797L47.6029 32.0272L47.31 32.9195L48.0655 32.3666ZM48.5315 20.3986L48.5308 20.3964V20.3992L48.5315 20.3986ZM48.8237 21.286L48.5315 20.3986L49.2891 19.8544H48.3529L48.0655 18.9621L47.7808 19.8517H46.8447L47.6029 20.3964L47.31 21.286L48.0655 20.7331L48.8237 21.286ZM52.1623 33.8284L51.4077 33.2754L50.6522 33.831L50.9451 32.9387L50.1841 32.3885L51.1203 32.394L51.4077 31.5043L51.6951 32.394L52.6313 32.3885L51.8703 32.9387L52.1623 33.8284ZM52.1659 20.3964L51.8731 19.5041H51.8703L52.6313 18.9566L51.6951 18.9621L51.4077 18.0697L51.1203 18.9621L50.1841 18.9566L50.9451 19.5041L50.6522 20.3964L51.4077 19.8408L52.1659 20.3964ZM55.5037 32.9143L54.7554 32.3666L53.9972 32.9195L54.2901 32.0272L53.5264 31.4797L54.4653 31.4852L54.7499 30.5928L55.0374 31.4852L55.9735 31.4797L55.2125 32.0272L55.5037 32.9143ZM55.5109 21.286L55.218 20.3964L55.2125 20.3992L55.9735 19.8544H55.0374L54.7499 18.9621L54.4653 19.8517H53.5264L54.2901 20.3964L53.9972 21.286L54.7554 20.7331L55.5109 21.286ZM57.2162 21.4256L56.9288 22.318L55.9899 22.3125L56.7509 22.8627L56.458 23.7523L57.2162 23.1967L57.9745 23.7523L57.6788 22.8627L58.4398 22.3125L57.5009 22.318L57.2162 21.4256ZM57.2217 29.8976L57.9799 30.4532H57.9854L57.6925 29.5636L58.4535 29.0162L57.5146 29.0216L57.2245 28.1238L56.9425 29.0216L56.0036 29.0134L56.7646 29.5636L56.469 30.4532L57.2217 29.8976ZM58.873 27.0965L58.1223 26.5444L57.3641 27.1L57.6569 26.2104L56.8932 25.6602L57.8349 25.6657L58.1195 24.7761L58.4042 25.6684L59.3404 25.663L58.5821 26.2132L58.873 27.0965ZM43.8036 14.347C43.8467 12.2787 42.1939 10.9867 41.9112 10.7657L41.8984 10.7557V12.7594C42.4459 13.6463 42.372 14.347 42.372 14.347H43.8036ZM45.9387 10.1178C47.5838 11.3386 48.5501 12.6963 48.9552 14.3551H47.436C47.0911 13.2684 46.6586 12.6799 45.9387 11.9244V10.1178ZM52.7846 14.3551H54.3941C53.8411 12.5293 51.7772 10.3148 50.0007 9.19253L49.998 10.9252C51.0628 11.7711 52.0975 12.8879 52.7846 14.3551ZM54.4543 8.2291V9.93991C56.6058 11.533 57.4024 12.6745 58.4425 14.3552H60.1314C58.9188 11.4482 55.875 9.11598 54.4543 8.2291ZM63.9253 14.3551H65.773C63.7255 10.8705 61.3824 8.87775 58.8504 7.2299V8.97902C60.7282 10.2957 62.7373 12.261 63.9253 14.3523V14.3551ZM29.5642 8.57408V7.71183C30.8479 7.54486 33.7686 7.74468 35.4302 8.05673V9.15712C34.3298 8.83138 31.4912 8.4728 29.5642 8.57408ZM28.2695 7.82936C25.1845 8.15236 23.0713 9.21169 21.8478 10.115V10.824C23.5942 9.41425 26.0167 8.83121 28.2695 8.65328V7.82936ZM22.2256 16.868C21.8478 16.6025 18.3003 13.9473 21.1361 10.7611V11.5631C20.4737 12.45 20.241 14.2785 22.2256 15.7785V16.868ZM29.9009 18.2722C28.0259 18.16 25.4501 17.6234 23.2986 16.4546V17.6234C25.2256 18.6882 27.1636 19.3644 29.9201 19.8571L29.9009 18.2722ZM30.8343 19.9695L30.8425 18.3216C31.3079 18.3873 33.5771 18.3709 34.8007 18.2888V20.1419C33.9685 20.1447 32.4466 20.1036 30.8343 19.9695ZM36.9056 7.65408V6.5318C34.921 6.12941 31.0724 5.83105 28.7922 6.04182V6.91502C31.8005 6.80279 34.7787 7.18874 36.9056 7.65408ZM18.5713 17.9081C21.3907 19.9775 25.9291 21.0067 28.8827 21.2695V21.2722V23.0351C26.5532 22.7093 21.6617 21.4173 18.5713 19.0851V17.9081ZM17.1013 9.94794C13.9973 12.7674 15.1332 16.1808 17.4983 18.1981V17.032C14.9964 14.6533 15.4863 12.2336 17.1013 10.6733V9.94794ZM29.9201 23.1885V21.3627C30.6509 21.4311 33.1555 21.516 34.8007 21.5078V23.5224C33.276 23.5224 31.7185 23.4403 29.9201 23.1885ZM17.9389 9.94808C20.6297 7.94712 24.6644 7.13962 27.5003 6.98633V6.14872C23.9883 6.37865 19.9536 7.7254 17.9389 9.26376V9.94808ZM13.562 19.2686C17.6871 22.8353 24.0732 24.2039 27.6071 24.6008V26.5689C23.7721 25.9065 17.4216 24.0123 13.562 20.5305V19.2686ZM38.5342 6.00089V4.89229C36.0405 4.4379 31.7293 3.94245 27.6945 4.31198V5.19065C31.086 4.95524 35.8736 5.39595 38.5342 6.00089ZM28.7402 26.7659V24.7293C29.8817 24.858 33.8836 25.0879 34.7979 25.0551V27.3243C33.265 27.2668 30.451 27.108 28.7402 26.7659ZM14.4763 8.8448C17.939 6.48526 23.3013 5.43961 26.3999 5.27264V4.4186C23.3998 4.67591 18.0348 5.74619 14.4763 8.155V8.8448ZM13.499 8.84495V9.54844C8.99341 13.3149 11.4734 17.0349 12.4999 18.1818V19.4519C7.87933 14.2128 11.8703 10.074 13.499 8.84495ZM40.2669 3.04461C37.2477 2.45062 31.3625 1.93874 26.7338 2.39313V3.2718C30.8233 2.95428 36.6428 3.41688 40.2669 4.18332V3.04461ZM34.8006 31.1621C32.5998 31.0854 29.7612 30.8117 27.4838 30.3683V28.214C29.8953 28.548 32.1673 28.6739 34.8006 28.7177V31.1621ZM26.2383 28.0825C19.9042 27.1874 12.9269 24.8799 8.60195 20.6398V21.9838C13.7262 27.0861 22.2227 29.4402 26.2383 30.1656V28.0825ZM25.4392 3.36759C21.0103 3.75902 15.2099 4.9169 10.9754 7.61313V6.93702C14.9417 4.33112 21.18 2.88035 25.4392 2.51082V3.36759ZM9.97893 8.30583V7.61056C3.5463 12.2092 5.14761 17.8398 7.53453 20.6784V19.2933C5.87573 17.0323 4.24978 12.576 9.97893 8.30583ZM3.09189 23.0515V21.5514V21.5487C7.7097 27.7569 17.6707 30.9704 24.2265 32.079V34.3811C17.9855 33.0672 7.95058 29.3554 3.09189 23.0515ZM7.72601 5.49725C11.7526 2.86672 18.6423 0.947877 24.1908 0.381258V1.26814C19.4964 1.71432 12.7818 3.09939 7.72601 6.20074V5.49725ZM25.5814 34.6604C27.0048 35.0244 32.4136 35.7964 34.8006 35.8155V33.1111C31.16 32.9961 27.4427 32.5992 25.5814 32.3008V34.6604ZM6.6394 6.20059V6.91502C3.59006 9.08296 -0.926472 13.5529 2.03528 19.7091V21.3953C-2.70023 13.0411 5.01071 7.25171 6.6394 6.20059Z" fill="#0B3323"/>
</svg>
